<?xml version="1.0" encoding="UTF-8"?>
<svg xmlns="http://www.w3.org/2000/svg" xmlns:xlink="http://www.w3.org/1999/xlink" width="408.18pt" height="101.68pt" viewBox="0 0 408.18 101.68" version="1.1">
<defs>
<clipPath id="clip1">
  <path d="M 243 59 L 331 59 L 331 101.679688 L 243 101.679688 Z M 243 59 "/>
</clipPath>
<clipPath id="clip2">
  <path d="M 29 71 L 56 71 L 56 101.679688 L 29 101.679688 Z M 29 71 "/>
</clipPath>
<clipPath id="clip3">
  <path d="M 159 63 L 178 63 L 178 101.679688 L 159 101.679688 Z M 159 63 "/>
</clipPath>
<clipPath id="clip4">
  <path d="M 131 71 L 160 71 L 160 101.679688 L 131 101.679688 Z M 131 71 "/>
</clipPath>
<clipPath id="clip5">
  <path d="M 178 71 L 207 71 L 207 101.679688 L 178 101.679688 Z M 178 71 "/>
</clipPath>
<clipPath id="clip6">
  <path d="M 362 20 L 408.179688 20 L 408.179688 101 L 362 101 Z M 362 20 "/>
</clipPath>
<clipPath id="clip7">
  <path d="M 363 35 L 408.179688 35 L 408.179688 101 L 363 101 Z M 363 35 "/>
</clipPath>
<clipPath id="clip8">
  <path d="M 389 32 L 408.179688 32 L 408.179688 38 L 389 38 Z M 389 32 "/>
</clipPath>
</defs>
<g id="surface1">
<path style=" stroke:none;fill-rule:nonzero;fill:rgb(0%,0%,0%);fill-opacity:1;" d="M 213.488281 96.90625 C 213.519531 96.273438 213.558594 95.261719 213.589844 93.882813 L 213.589844 67.324219 L 213.503906 64.75 C 213.480469 64.203125 213.457031 63.832031 213.429688 63.632813 C 213.398438 63.425781 213.355469 63.25 213.296875 63.085938 C 213.09375 62.433594 212.65625 61.96875 211.992188 61.691406 C 211.382813 61.433594 210.476563 61.308594 209.304688 61.300781 L 209.304688 60.398438 L 224.46875 60.394531 C 226.675781 60.402344 228.664063 60.542969 230.441406 60.832031 C 232.21875 61.113281 233.648438 61.507813 234.746094 62.007813 C 237.914063 63.511719 239.480469 66.042969 239.460938 69.640625 C 239.5 74.789063 236.117188 78.074219 229.109375 78.921875 L 227.933594 79.109375 C 229.511719 79.167969 231.640625 79.691406 232.632813 79.921875 C 233.617188 80.148438 234.578125 80.507813 235.527344 81 C 239.242188 82.871094 241.074219 85.855469 241.039063 89.992188 C 241.058594 95.007813 238.613281 98.265625 233.648438 99.808594 C 232.5625 100.117188 231.203125 100.359375 229.558594 100.539063 C 227.90625 100.71875 226.121094 100.808594 224.1875 100.8125 L 209.304688 100.8125 L 209.304688 99.90625 C 211.058594 99.882813 212.261719 99.617188 212.796875 98.988281 C 213.015625 98.777344 213.175781 98.542969 213.28125 98.273438 C 213.386719 98 213.453125 97.53125 213.488281 96.90625 M 218.15625 61.640625 L 218.15625 78.492188 L 224.074219 78.492188 C 230.953125 78.449219 234.519531 75.59375 234.554688 69.867188 C 234.605469 64.3125 230.851563 61.597656 223.566406 61.640625 Z M 235.742188 89.535156 C 235.699219 85.613281 234.28125 82.832031 231.449219 81.277344 C 230.589844 80.84375 229.496094 80.503906 228.183594 80.261719 C 226.875 80.023438 225.429688 79.90625 223.847656 79.902344 L 218.15625 79.902344 L 218.15625 99.570313 L 223.847656 99.570313 C 227.972656 99.589844 230.984375 98.820313 232.84375 97.207031 C 233.78125 96.429688 234.496094 95.382813 234.992188 94.0625 C 235.488281 92.746094 235.734375 91.230469 235.742188 89.535156 "/>
<g clip-path="url(#clip1)" clip-rule="nonzero">
<path style=" stroke:none;fill-rule:nonzero;fill:rgb(0%,0%,0%);fill-opacity:1;" d="M 262.742188 99.660156 C 262.4375 99.050781 262.21875 98.328125 262.128906 96.472656 L 262.097656 95.929688 L 261.734375 96.34375 C 261.300781 96.824219 260.875 97.253906 260.460938 97.617188 C 260.042969 97.980469 259.554688 98.351563 259.011719 98.726563 C 257.816406 99.609375 256.660156 100.230469 255.554688 100.589844 C 254.449219 100.949219 253.203125 101.121094 251.816406 101.109375 C 249.394531 101.121094 247.539063 100.546875 246.210938 99.417969 C 245.472656 98.753906 244.886719 97.914063 244.460938 96.894531 C 244.035156 95.878906 243.816406 94.789063 243.808594 93.613281 C 243.835938 89.289063 246.488281 86.5 251.921875 85.261719 C 253.355469 84.929688 254.875 84.65625 256.472656 84.445313 C 258.070313 84.230469 259.890625 84.050781 261.917969 83.914063 L 262.128906 80.144531 C 262.128906 78.855469 262.066406 77.808594 261.941406 77.011719 C 261.816406 76.207031 261.605469 75.503906 261.3125 74.914063 C 260.507813 73.34375 258.863281 72.589844 256.492188 72.589844 C 252.683594 72.570313 250.621094 74.382813 250.40625 77.984375 C 250.386719 78.5625 250.332031 78.964844 250.253906 79.207031 C 250.179688 79.4375 250.058594 79.605469 249.882813 79.730469 C 249.503906 79.988281 248.898438 80.132813 248.035156 80.144531 C 246.167969 80.167969 245.46875 79.617188 245.5 78.679688 C 245.511719 77.703125 245.835938 76.757813 246.484375 75.847656 C 247.140625 74.933594 248.046875 74.136719 249.21875 73.460938 C 251.328125 72.292969 254.027344 71.695313 257.339844 71.683594 C 260.960938 71.695313 263.390625 72.515625 264.71875 74.085938 C 265.257813 74.746094 265.65625 75.5625 265.910156 76.550781 C 266.171875 77.535156 266.304688 78.789063 266.300781 80.308594 L 266.296875 80.628906 L 266.265625 82.105469 L 266.1875 86 L 266.132813 91.355469 L 266.074219 93.949219 C 266.082031 95.167969 266.132813 96.097656 266.21875 97.140625 C 266.300781 98.152344 266.660156 99.285156 267.472656 99.582031 C 268.316406 99.898438 269.132813 100.023438 270.683594 100.03125 C 271.820313 100.011719 272.695313 99.878906 273.289063 99.625 C 273.96875 99.339844 274.386719 98.726563 274.566406 97.859375 C 274.738281 97.015625 274.8125 95.726563 274.796875 94 L 274.796875 78.886719 C 274.835938 76.828125 274.597656 75.382813 274.011719 74.625 C 273.4375 73.886719 272.371094 73.570313 270.90625 73.585938 L 270.90625 72.78125 L 278.972656 72.195313 L 278.972656 78.617188 L 279.390625 77.867188 C 280.582031 75.746094 281.9375 74.238281 283.445313 73.339844 C 284.953125 72.4375 286.839844 71.984375 289.113281 72.011719 C 292.535156 71.960938 294.914063 73.105469 296.308594 75.398438 C 296.820313 76.167969 297.191406 77.089844 297.414063 78.171875 C 297.632813 79.253906 297.746094 80.636719 297.738281 82.324219 L 297.738281 94 C 297.71875 95.742188 297.789063 97.039063 297.960938 97.882813 C 298.132813 98.753906 298.542969 99.359375 299.222656 99.636719 C 299.785156 99.875 301.097656 99.996094 302.210938 100.027344 C 303.261719 99.996094 304.066406 99.863281 304.621094 99.625 C 305.28125 99.335938 305.683594 98.722656 305.851563 97.859375 C 306.015625 97.011719 306.089844 95.726563 306.066406 94 L 306.066406 66.542969 C 306.089844 64.96875 306.023438 63.804688 305.863281 63.050781 C 305.699219 62.261719 305.296875 61.726563 304.632813 61.492188 C 304.058594 61.289063 303.195313 61.195313 302.066406 61.1875 L 302.066406 60.386719 L 310.449219 59.957031 C 310.347656 61.820313 310.265625 63.722656 310.210938 65.671875 C 310.15625 67.703125 310.128906 69.476563 310.128906 70.992188 L 310.128906 89.441406 L 319.367188 79.316406 C 320.671875 77.871094 321.390625 76.65625 321.398438 75.679688 C 321.464844 74.324219 320.097656 73.710938 317.847656 73.597656 L 317.847656 72.796875 L 329.855469 72.796875 L 329.855469 73.609375 C 329.132813 73.695313 328.507813 73.828125 327.972656 74.007813 C 327.390625 74.207031 326.796875 74.492188 326.1875 74.859375 C 325.574219 75.230469 325.054688 75.574219 324.636719 75.886719 C 324.210938 76.203125 323.707031 76.660156 323.132813 77.246094 C 322.554688 77.832031 321.714844 78.722656 320.613281 79.917969 L 317.566406 83.199219 L 325.546875 95.757813 C 326.460938 97.246094 327.296875 98.296875 328.066406 98.890625 C 328.804688 99.464844 329.742188 99.832031 330.871094 100.003906 L 330.871094 100.824219 L 323.570313 100.824219 C 323.367188 100.417969 323.09375 99.890625 322.738281 99.242188 L 321.578125 97.121094 L 320.6875 95.523438 L 314.785156 85.898438 L 310.140625 91.09375 L 310.128906 94 C 310.105469 95.726563 310.179688 97.015625 310.347656 97.859375 C 310.515625 98.726563 310.921875 99.335938 311.59375 99.625 C 312.179688 99.878906 313.050781 100.011719 314.183594 100.03125 L 314.183594 100.824219 L 289.507813 100.824219 L 289.507813 100.03125 C 291.179688 99.984375 292.328125 99.710938 292.789063 99.097656 C 292.972656 98.863281 293.113281 98.59375 293.210938 98.292969 C 293.308594 97.992188 293.367188 97.597656 293.398438 97.121094 C 293.429688 96.742188 293.464844 96.195313 293.5 95.480469 C 293.542969 94.761719 293.5625 94.269531 293.566406 94.003906 L 293.566406 82.664063 C 293.578125 79.867188 293.277344 77.796875 292.644531 76.480469 C 291.679688 74.410156 289.945313 73.371094 287.480469 73.363281 C 284.734375 73.355469 282.546875 74.660156 280.921875 77.246094 C 280.308594 78.222656 279.835938 79.335938 279.492188 80.574219 C 279.152344 81.816406 278.972656 83.039063 278.972656 84.238281 L 278.972656 94 C 278.949219 95.742188 279.023438 97.039063 279.1875 97.882813 C 279.363281 98.753906 279.773438 99.359375 280.453125 99.636719 C 281.046875 99.886719 281.929688 100.011719 283.085938 100.03125 L 283.085938 100.824219 L 270.949219 100.824219 C 269.871094 100.863281 267.820313 100.914063 266.804688 100.902344 C 265.738281 100.886719 265.226563 100.773438 264.253906 100.699219 C 263.390625 100.449219 263.027344 100.222656 262.742188 99.660156 M 248.433594 93.441406 C 248.453125 95.285156 248.898438 96.777344 249.792969 97.902344 C 250.6875 99.035156 251.898438 99.617188 253.390625 99.640625 C 254.898438 99.621094 256.328125 99.226563 257.660156 98.46875 C 258.992188 97.703125 260.042969 96.679688 260.800781 95.414063 C 261.265625 94.609375 261.601563 93.570313 261.8125 92.308594 C 262.023438 91.0625 262.128906 89.503906 262.128906 87.636719 L 262.128906 84.742188 C 259.425781 84.980469 257.488281 85.234375 256.085938 85.53125 C 254.671875 85.832031 253.421875 86.257813 252.332031 86.820313 C 249.75 88.101563 248.453125 90.324219 248.433594 93.441406 "/>
</g>
<path style=" stroke:none;fill-rule:nonzero;fill:rgb(0%,0%,0%);fill-opacity:1;" d="M 10.992188 83.800781 L 10.992188 93.851563 C 10.972656 95.464844 11.0625 96.664063 11.269531 97.445313 C 11.476563 98.226563 11.921875 98.746094 12.613281 98.996094 C 13.300781 99.25 14.363281 99.394531 15.789063 99.417969 L 15.789063 100.824219 L 0 100.824219 L 0 99.417969 C 1.34375 99.394531 2.339844 99.25 2.988281 98.996094 C 3.632813 98.746094 4.050781 98.226563 4.242188 97.445313 C 4.429688 96.664063 4.515625 95.464844 4.496094 93.851563 L 4.496094 67.421875 C 4.515625 65.808594 4.433594 64.609375 4.25 63.828125 C 4.066406 63.042969 3.664063 62.519531 3.046875 62.261719 C 2.429688 62 1.480469 61.847656 0.199219 61.800781 L 0.199219 60.394531 L 15.238281 60.394531 C 20.308594 60.375 24.023438 61.269531 26.382813 63.078125 C 28.742188 64.890625 29.90625 67.738281 29.878906 71.640625 C 29.898438 77.113281 27.765625 80.699219 23.484375 82.394531 C 22.367188 82.828125 20.945313 83.171875 19.214844 83.417969 C 17.480469 83.667969 15.558594 83.796875 13.441406 83.800781 Z M 10.992188 82.234375 L 13.59375 82.234375 C 16.714844 82.21875 19.011719 81.484375 20.488281 80.015625 C 21.289063 79.167969 21.894531 78.050781 22.3125 76.675781 C 22.722656 75.300781 22.933594 73.730469 22.933594 71.960938 C 22.917969 65.304688 20.003906 61.972656 14.191406 61.960938 L 10.992188 61.960938 "/>
<g clip-path="url(#clip2)" clip-rule="nonzero">
<path style=" stroke:none;fill-rule:nonzero;fill:rgb(0%,0%,0%);fill-opacity:1;" d="M 55.300781 85.496094 L 36.929688 85.496094 C 36.949219 87.457031 37.0625 89.101563 37.273438 90.429688 C 37.480469 91.753906 37.820313 92.964844 38.28125 94.0625 C 39.804688 97.621094 42.164063 99.398438 45.355469 99.398438 C 47.160156 99.386719 48.796875 98.855469 50.269531 97.800781 C 51.734375 96.746094 52.960938 95.230469 53.929688 93.257813 L 55.234375 94.117188 C 53.953125 96.664063 52.390625 98.535156 50.546875 99.726563 C 48.699219 100.917969 46.449219 101.511719 43.792969 101.5 C 39.609375 101.445313 35.765625 100.109375 33.355469 97.492188 C 30.945313 94.875 29.71875 91.285156 29.667969 86.734375 C 29.71875 82.148438 30.90625 78.523438 33.234375 75.851563 C 35.558594 73.179688 39.269531 71.816406 43.273438 71.757813 C 45.933594 71.761719 48.503906 72.371094 50.328125 73.578125 C 52.152344 74.78125 53.496094 76.546875 54.363281 78.871094 C 54.648438 79.640625 54.863281 80.519531 55.007813 81.515625 C 55.152344 82.511719 55.253906 83.835938 55.300781 85.496094 M 36.980469 83.9375 L 48.472656 83.9375 C 48.425781 82.273438 48.339844 80.933594 48.207031 79.921875 C 48.078125 78.902344 47.867188 78 47.589844 77.199219 C 46.617188 74.371094 45.128906 72.96875 43.117188 72.996094 C 40.863281 73.015625 39.179688 74.59375 38.074219 77.738281 C 37.789063 78.550781 37.5625 79.445313 37.390625 80.414063 C 37.21875 81.382813 37.078125 82.554688 36.980469 83.9375 "/>
</g>
<path style=" stroke:none;fill-rule:nonzero;fill:rgb(0%,0%,0%);fill-opacity:1;" d="M 56.476563 72.527344 L 66.664063 71.824219 C 66.71875 72.839844 66.761719 73.695313 66.789063 74.382813 C 66.816406 75.078125 66.828125 75.6875 66.828125 76.214844 L 66.828125 77.839844 C 69.042969 73.792969 71.71875 71.75 74.851563 71.714844 C 76.207031 71.742188 77.304688 72.140625 78.148438 72.898438 C 78.996094 73.664063 79.433594 74.644531 79.457031 75.835938 C 79.4375 76.828125 79.074219 77.621094 78.359375 78.222656 C 77.648438 78.816406 76.714844 79.128906 75.554688 79.140625 C 74.164063 79.183594 73.316406 78.609375 73.007813 77.40625 C 72.808594 76.664063 72.601563 76.160156 72.382813 75.890625 C 72.167969 75.621094 71.855469 75.496094 71.433594 75.507813 L 71.328125 75.507813 C 70.261719 75.601563 69.25 76.449219 68.289063 78.0625 C 67.859375 78.863281 67.535156 79.746094 67.316406 80.71875 C 67.101563 81.691406 66.992188 82.8125 66.992188 84.078125 L 66.992188 94.105469 C 66.96875 95.707031 67.050781 96.882813 67.226563 97.644531 C 67.398438 98.402344 67.800781 98.898438 68.417969 99.132813 C 69.042969 99.363281 70.011719 99.496094 71.328125 99.527344 L 71.328125 100.824219 L 56.257813 100.824219 L 56.257813 99.527344 C 57.488281 99.53125 58.398438 99.410156 58.988281 99.167969 C 59.582031 98.921875 59.964844 98.414063 60.140625 97.644531 C 60.316406 96.867188 60.394531 95.6875 60.378906 94.105469 L 60.378906 79.085938 C 60.429688 76.851563 60.207031 75.402344 59.707031 74.730469 C 59.210938 74.0625 58.132813 73.757813 56.476563 73.832031 "/>
<path style=" stroke:none;fill-rule:nonzero;fill:rgb(0%,0%,0%);fill-opacity:1;" d="M 91.5625 71.824219 L 91.617188 77.191406 C 93.8125 73.578125 96.957031 71.753906 101.050781 71.71875 C 105.214844 71.691406 107.78125 73.585938 108.746094 77.410156 C 109.921875 75.4375 111.269531 73.996094 112.777344 73.082031 C 114.285156 72.160156 116.050781 71.703125 118.070313 71.71875 C 121.257813 71.734375 123.609375 72.785156 125.117188 74.859375 C 125.703125 75.648438 126.128906 76.609375 126.375 77.746094 C 126.628906 78.886719 126.75 80.363281 126.742188 82.179688 L 126.742188 94.105469 C 126.722656 95.6875 126.804688 96.867188 126.980469 97.640625 C 127.15625 98.414063 127.542969 98.921875 128.132813 99.167969 C 128.726563 99.410156 129.636719 99.53125 130.863281 99.523438 L 130.863281 100.824219 L 116.171875 100.824219 L 116.171875 99.523438 C 117.347656 99.53125 118.21875 99.410156 118.789063 99.167969 C 119.359375 98.921875 119.730469 98.414063 119.898438 97.640625 C 120.070313 96.867188 120.148438 95.6875 120.132813 94.105469 L 120.132813 82.234375 C 120.144531 79.382813 119.792969 77.328125 119.082031 76.066406 C 118.367188 74.800781 117.21875 74.1875 115.628906 74.210938 C 113.722656 74.171875 112.113281 75.167969 110.808594 77.191406 C 109.679688 78.878906 109.117188 80.707031 109.125 82.667969 L 109.125 94.105469 C 109.109375 95.6875 109.1875 96.867188 109.359375 97.640625 C 109.53125 98.414063 109.90625 98.921875 110.484375 99.167969 C 111.0625 99.410156 111.945313 99.53125 113.136719 99.523438 L 113.136719 100.824219 L 98.609375 100.824219 L 98.609375 99.523438 C 99.785156 99.53125 100.65625 99.410156 101.226563 99.167969 C 101.796875 98.921875 102.164063 98.414063 102.335938 97.640625 C 102.507813 96.867188 102.585938 95.6875 102.566406 94.105469 L 102.566406 82.179688 C 102.59375 76.8125 101.132813 74.15625 98.175781 74.210938 C 96.339844 74.277344 94.796875 75.148438 93.554688 76.824219 C 92.3125 78.503906 91.667969 80.59375 91.617188 83.101563 L 91.617188 94.105469 C 91.601563 95.707031 91.679688 96.894531 91.851563 97.664063 C 92.019531 98.4375 92.390625 98.941406 92.960938 99.179688 C 93.527344 99.414063 94.398438 99.53125 95.578125 99.523438 L 95.578125 100.824219 L 80.886719 100.824219 L 80.886719 99.523438 C 82.113281 99.53125 83.023438 99.414063 83.617188 99.179688 C 84.207031 98.941406 84.59375 98.4375 84.769531 97.664063 C 84.945313 96.894531 85.023438 95.707031 85.003906 94.105469 L 85.003906 79.035156 C 85.0625 76.828125 84.839844 75.402344 84.339844 74.75 C 83.84375 74.089844 82.726563 73.789063 80.996094 73.832031 L 80.996094 72.527344 "/>
<g clip-path="url(#clip3)" clip-rule="nonzero">
<path style=" stroke:none;fill-rule:nonzero;fill:rgb(0%,0%,0%);fill-opacity:1;" d="M 169.402344 74.304688 L 169.402344 92.410156 C 169.398438 93.589844 169.441406 94.5625 169.53125 95.335938 C 169.617188 96.109375 169.753906 96.757813 169.941406 97.289063 C 170.171875 97.894531 170.527344 98.375 171.003906 98.742188 C 171.484375 99.101563 172.019531 99.285156 172.597656 99.292969 C 173.757813 99.277344 175.019531 98.714844 176.394531 97.617188 L 177.152344 98.96875 C 174.976563 100.796875 172.5 101.695313 169.726563 101.679688 C 166.734375 101.636719 164.695313 100.636719 163.601563 98.699219 C 163.386719 98.269531 163.21875 97.78125 163.101563 97.226563 C 162.984375 96.675781 162.898438 95.9375 162.855469 94.996094 C 162.808594 94.0625 162.785156 92.800781 162.785156 91.21875 L 162.785156 74.304688 L 159.699219 74.304688 L 159.699219 72.679688 C 160.878906 72.636719 161.878906 72.386719 162.699219 71.9375 C 163.523438 71.480469 164.238281 70.773438 164.847656 69.808594 C 165.328125 69.070313 165.722656 68.253906 166.03125 67.355469 C 166.34375 66.457031 166.617188 65.339844 166.855469 64.003906 L 169.566406 63.738281 C 169.527344 64.453125 169.496094 65.179688 169.472656 65.921875 C 169.449219 66.65625 169.429688 67.546875 169.421875 68.582031 C 169.40625 69.621094 169.402344 70.953125 169.402344 72.570313 L 175.960938 72.570313 L 175.960938 74.304688 "/>
</g>
<g clip-path="url(#clip4)" clip-rule="nonzero">
<path style=" stroke:none;fill-rule:nonzero;fill:rgb(0%,0%,0%);fill-opacity:1;" d="M 159.671875 99.679688 L 159.671875 100.824219 C 158.085938 100.929688 157.445313 100.929688 155.777344 100.929688 C 154.453125 100.929688 153.085938 100.90625 151.949219 100.480469 C 151.246094 100.214844 150.851563 99.988281 150.328125 99.4375 C 149.960938 98.855469 149.730469 98.824219 149.613281 97.207031 C 148.214844 98.71875 146.757813 99.828125 145.242188 100.542969 C 143.726563 101.253906 142.09375 101.605469 140.34375 101.597656 C 137.742188 101.570313 135.707031 100.851563 134.238281 99.441406 C 132.769531 98.03125 132.023438 96.09375 131.996094 93.628906 C 131.984375 88.976563 134.878906 86.085938 140.667969 84.957031 C 143.277344 84.449219 146.242188 84.105469 149.558594 83.925781 L 149.558594 80.402344 C 149.585938 77.582031 149.285156 75.625 148.664063 74.535156 C 148.039063 73.449219 146.929688 72.929688 145.328125 72.980469 C 143.632813 72.941406 142.421875 73.558594 141.699219 74.820313 C 141.4375 75.257813 141.242188 75.753906 141.121094 76.320313 C 141.003906 76.882813 140.902344 77.664063 140.832031 78.667969 C 140.789063 79.636719 140.507813 80.324219 139.988281 80.726563 C 139.472656 81.136719 138.652344 81.335938 137.523438 81.328125 C 135.011719 81.308594 133.746094 80.476563 133.730469 78.832031 C 133.738281 77.875 134.035156 76.957031 134.617188 76.089844 C 135.199219 75.214844 136.027344 74.449219 137.089844 73.789063 C 139.347656 72.398438 142.3125 71.714844 145.980469 71.730469 C 149.710938 71.714844 152.386719 72.453125 154.003906 73.953125 C 154.730469 74.640625 155.265625 75.515625 155.609375 76.582031 C 155.953125 77.648438 156.121094 79.011719 156.117188 80.679688 L 156.0625 85.390625 L 156.007813 90.105469 C 155.964844 91.652344 155.945313 92.628906 155.953125 93.03125 C 155.933594 94.988281 155.996094 96.417969 156.136719 97.3125 C 156.28125 98.214844 156.4375 98.613281 157.027344 99.101563 C 158.0625 99.691406 158.949219 99.675781 159.671875 99.679688 M 149.558594 89.347656 L 149.558594 85.175781 C 145.675781 85.4375 142.925781 86.15625 141.296875 87.328125 C 139.675781 88.5 138.886719 90.328125 138.933594 92.816406 C 138.949219 94.765625 139.351563 96.3125 140.132813 97.457031 C 140.914063 98.605469 141.980469 99.1875 143.324219 99.210938 C 144.425781 99.203125 145.445313 98.886719 146.378906 98.257813 C 147.3125 97.632813 148.046875 96.753906 148.582031 95.636719 C 148.929688 94.949219 149.179688 94.113281 149.335938 93.121094 C 149.488281 92.128906 149.5625 90.871094 149.558594 89.347656 "/>
</g>
<g clip-path="url(#clip5)" clip-rule="nonzero">
<path style=" stroke:none;fill-rule:nonzero;fill:rgb(0%,0%,0%);fill-opacity:1;" d="M 206.34375 99.679688 L 206.34375 100.824219 C 204.757813 100.929688 204.117188 100.933594 202.449219 100.933594 C 201.125 100.933594 199.757813 100.910156 198.617188 100.484375 C 197.914063 100.222656 197.523438 99.996094 197 99.4375 C 196.632813 98.859375 196.398438 98.824219 196.28125 97.210938 C 194.882813 98.71875 193.425781 99.832031 191.914063 100.546875 C 190.398438 101.253906 188.765625 101.609375 187.015625 101.601563 C 184.414063 101.574219 182.378906 100.851563 180.90625 99.449219 C 179.4375 98.035156 178.695313 96.097656 178.664063 93.632813 C 178.65625 88.980469 181.546875 86.089844 187.339844 84.960938 C 189.949219 84.453125 192.914063 84.109375 196.226563 83.929688 L 196.226563 80.40625 C 196.253906 77.585938 195.957031 75.628906 195.335938 74.535156 C 194.710938 73.449219 193.597656 72.933594 192 72.984375 C 190.300781 72.945313 189.089844 73.5625 188.367188 74.824219 C 188.105469 75.261719 187.914063 75.757813 187.792969 76.324219 C 187.671875 76.886719 187.574219 77.667969 187.503906 78.671875 C 187.460938 79.636719 187.179688 80.324219 186.660156 80.730469 C 186.144531 81.140625 185.320313 81.339844 184.195313 81.332031 C 181.683594 81.3125 180.417969 80.480469 180.398438 78.839844 C 180.40625 77.878906 180.703125 76.960938 181.289063 76.09375 C 181.871094 75.21875 182.695313 74.453125 183.761719 73.796875 C 186.019531 72.402344 188.984375 71.71875 192.652344 71.734375 C 196.382813 71.71875 199.058594 72.457031 200.675781 73.957031 C 201.402344 74.644531 201.9375 75.523438 202.277344 76.585938 C 202.621094 77.652344 202.789063 79.015625 202.785156 80.679688 L 202.730469 85.394531 L 202.679688 90.109375 C 202.632813 91.65625 202.613281 92.632813 202.625 93.035156 C 202.605469 94.992188 202.667969 96.421875 202.808594 97.316406 C 202.953125 98.21875 203.105469 98.617188 203.695313 99.105469 C 204.730469 99.695313 205.621094 99.675781 206.34375 99.679688 M 196.226563 89.355469 L 196.226563 85.175781 C 192.347656 85.441406 189.59375 86.160156 187.96875 87.332031 C 186.34375 88.507813 185.554688 90.332031 185.605469 92.820313 C 185.621094 94.769531 186.019531 96.316406 186.804688 97.460938 C 187.585938 98.609375 188.652344 99.191406 189.992188 99.214844 C 191.097656 99.207031 192.117188 98.890625 193.050781 98.261719 C 193.984375 97.636719 194.71875 96.757813 195.25 95.640625 C 195.601563 94.953125 195.851563 94.117188 196.003906 93.125 C 196.15625 92.132813 196.234375 90.875 196.226563 89.355469 "/>
</g>
<path style=" stroke:none;fill-rule:nonzero;fill:rgb(0%,58.399963%,72.198486%);fill-opacity:1;" d="M 317.953125 33.011719 L 317.847656 35.097656 L 357.902344 82.089844 L 359.339844 82.320313 L 359.519531 82.230469 L 360.226563 80.929688 L 343.144531 23.753906 L 340.242188 21.800781 "/>
<path style=" stroke:none;fill-rule:nonzero;fill:rgb(0%,33.299255%,45.899963%);fill-opacity:1;" d="M 317.847656 35.101563 L 357.902344 82.089844 L 359.339844 82.320313 L 329.800781 37.382813 Z M 317.847656 35.101563 "/>
<path style=" stroke:none;fill-rule:nonzero;fill:rgb(3.898621%,72.898865%,93.299866%);fill-opacity:1;" d="M 340.242188 21.800781 L 330.03125 33.820313 L 334.203125 35.644531 L 343.144531 23.753906 "/>
<path style=" stroke:none;fill-rule:nonzero;fill:rgb(0%,44.299316%,56.498718%);fill-opacity:1;" d="M 317.847656 35.101563 L 329.800781 37.382813 L 330.03125 33.820313 L 317.953125 33.015625 Z M 317.847656 35.101563 "/>
<path style=" stroke:none;fill-rule:nonzero;fill:rgb(0%,44.299316%,56.498718%);fill-opacity:1;" d="M 334.199219 35.644531 L 359.523438 82.226563 L 360.226563 80.925781 L 343.144531 23.757813 Z M 334.199219 35.644531 "/>
<g clip-path="url(#clip6)" clip-rule="nonzero">
<path style=" stroke:none;fill-rule:nonzero;fill:rgb(50.59967%,71.798706%,23.899841%);fill-opacity:1;" d="M 382.230469 20.667969 L 408.132813 32.574219 L 408.179688 35.933594 L 365.675781 100.316406 L 363.738281 100.824219 L 363.449219 100.695313 L 362.847656 99.246094 L 379.976563 21.921875 "/>
</g>
<g clip-path="url(#clip7)" clip-rule="nonzero">
<path style=" stroke:none;fill-rule:nonzero;fill:rgb(41.19873%,57.299805%,11.399841%);fill-opacity:1;" d="M 390.925781 37.402344 L 363.738281 100.824219 L 365.675781 100.316406 L 408.179688 35.933594 Z M 390.925781 37.402344 "/>
</g>
<path style=" stroke:none;fill-rule:nonzero;fill:rgb(15.299988%,47.499084%,19.999695%);fill-opacity:1;" d="M 379.972656 21.921875 L 362.84375 99.238281 L 363.449219 100.691406 L 386.035156 34.710938 Z M 379.972656 21.921875 "/>
<g clip-path="url(#clip8)" clip-rule="nonzero">
<path style=" stroke:none;fill-rule:nonzero;fill:rgb(67.799377%,79.998779%,32.199097%);fill-opacity:1;" d="M 389.949219 32.8125 L 390.929688 37.40625 L 408.179688 35.933594 L 408.132813 32.574219 "/>
</g>
<path style=" stroke:none;fill-rule:nonzero;fill:rgb(41.19873%,57.299805%,11.399841%);fill-opacity:1;" d="M 379.976563 21.921875 L 386.03125 34.707031 L 389.949219 32.8125 L 382.230469 20.667969 Z M 379.976563 21.921875 "/>
<path style=" stroke:none;fill-rule:nonzero;fill:rgb(88.999939%,1.199341%,17.599487%);fill-opacity:1;" d="M 342.671875 2.347656 L 343.703125 0.363281 L 376.859375 0.0078125 L 379.003906 2.226563 L 363.121094 55.304688 L 362.109375 55.886719 L 362.078125 55.882813 L 360.992188 55.152344 "/>
<path style=" stroke:none;fill-rule:nonzero;fill:rgb(70.999146%,7.099915%,15.299988%);fill-opacity:1;" d="M 342.671875 2.34375 L 355.519531 8.742188 L 357.90625 5.917969 L 343.703125 0.363281 Z M 342.671875 2.34375 "/>
<path style=" stroke:none;fill-rule:nonzero;fill:rgb(47.499084%,10.598755%,7.798767%);fill-opacity:1;" d="M 342.671875 2.347656 L 360.992188 55.152344 L 362.074219 55.882813 L 355.519531 8.742188 L 342.671875 2.34375 "/>
<path style=" stroke:none;fill-rule:nonzero;fill:rgb(70.999146%,7.099915%,15.299988%);fill-opacity:1;" d="M 361.753906 8.75 L 362.109375 55.886719 L 363.121094 55.300781 L 379.003906 2.226563 Z M 361.753906 8.75 "/>
<path style=" stroke:none;fill-rule:nonzero;fill:rgb(91.799927%,31.799316%,37.298584%);fill-opacity:1;" d="M 376.859375 0.00390625 L 357.910156 5.917969 L 361.753906 8.746094 L 379.003906 2.226563 Z M 376.859375 0.00390625 "/>
</g>
</svg>
